<svg width="20" height="22" viewBox="0 0 20 22" fill="none" xmlns="http://www.w3.org/2000/svg">
<path d="M3.52 1.64L1.96 3.72C1.65102 4.13198 1.49652 4.33797 1.50011 4.51039C1.50323 4.66044 1.57358 4.80115 1.69175 4.89368C1.82754 5 2.08503 5 2.6 5H17.4C17.915 5 18.1725 5 18.3083 4.89368C18.4264 4.80115 18.4968 4.66044 18.4999 4.51039C18.5035 4.33797 18.349 4.13198 18.04 3.72L16.48 1.64M3.52 1.64C3.696 1.40533 3.784 1.288 3.89552 1.20338C3.9943 1.12842 4.10616 1.0725 4.22539 1.03845C4.36 1 4.50667 1 4.8 1H15.2C15.4933 1 15.64 1 15.7746 1.03845C15.8938 1.0725 16.0057 1.12842 16.1045 1.20338C16.216 1.288 16.304 1.40533 16.48 1.64M3.52 1.64L1.64 4.14666C1.40254 4.46328 1.28381 4.62159 1.1995 4.79592C1.12469 4.95062 1.07012 5.11431 1.03715 5.28296C1 5.47301 1 5.6709 1 6.06666L1 17.8C1 18.9201 1 19.4802 1.21799 19.908C1.40973 20.2843 1.71569 20.5903 2.09202 20.782C2.51984 21 3.07989 21 4.2 21L15.8 21C16.9201 21 17.4802 21 17.908 20.782C18.2843 20.5903 18.5903 20.2843 18.782 19.908C19 19.4802 19 18.9201 19 17.8V6.06667C19 5.6709 19 5.47301 18.9628 5.28296C18.9299 5.11431 18.8753 4.95062 18.8005 4.79592C18.7162 4.62159 18.5975 4.46328 18.36 4.14667L16.48 1.64M14 9C14 10.0609 13.5786 11.0783 12.8284 11.8284C12.0783 12.5786 11.0609 13 10 13C8.93913 13 7.92172 12.5786 7.17157 11.8284C6.42143 11.0783 6 10.0609 6 9" stroke="#FF5B4F" stroke-width="2" stroke-linecap="round" stroke-linejoin="round"/>
</svg>
