<svg width="22" height="22" viewBox="0 0 22 22" fill="none" xmlns="http://www.w3.org/2000/svg">
<path d="M5 19.0871H7.61029C7.95063 19.0871 8.28888 19.1276 8.61881 19.2086L11.3769 19.8789C11.9753 20.0247 12.5988 20.0388 13.2035 19.9214L16.253 19.3281C17.0585 19.1712 17.7996 18.7854 18.3803 18.2205L20.5379 16.1217C21.154 15.5233 21.154 14.5524 20.5379 13.9531C19.9832 13.4134 19.1047 13.3527 18.4771 13.8103L15.9626 15.6448C15.6025 15.9081 15.1643 16.0498 14.7137 16.0498H12.2855L13.8311 16.0497C14.7022 16.0497 15.4079 15.3633 15.4079 14.5159V14.2091C15.4079 13.5055 14.9156 12.8919 14.2141 12.7219L11.8286 12.1417C11.4404 12.0476 11.0428 12 10.6431 12C9.67833 12 7.93189 12.7988 7.93189 12.7988L5 14.0249M1 13.6L1 19.4C1 19.96 1 20.2401 1.10899 20.454C1.20487 20.6421 1.35785 20.7951 1.54601 20.891C1.75992 21 2.03995 21 2.6 21H3.4C3.96005 21 4.24008 21 4.45399 20.891C4.64215 20.7951 4.79513 20.6421 4.89101 20.454C5 20.2401 5 19.96 5 19.4V13.6C5 13.0399 5 12.7599 4.89101 12.546C4.79513 12.3578 4.64215 12.2049 4.45399 12.109C4.24008 12 3.96005 12 3.4 12H2.6C2.03995 12 1.75992 12 1.54601 12.109C1.35785 12.2049 1.20487 12.3578 1.10899 12.546C1 12.7599 1 13.0399 1 13.6ZM16.1914 2.59224C15.5946 1.34338 14.2186 0.681771 12.8804 1.32036C11.5423 1.95895 10.9722 3.47337 11.5325 4.80281C11.8787 5.62445 12.8707 7.21999 13.5781 8.31902C13.8394 8.7251 13.9701 8.92814 14.161 9.04692C14.3247 9.1488 14.5297 9.20371 14.7224 9.19734C14.9471 9.18991 15.1618 9.07941 15.5911 8.85842C16.7532 8.2603 18.4101 7.37454 19.1208 6.83611C20.2707 5.9649 20.5556 4.36356 19.6947 3.14623C18.8337 1.92889 17.3327 1.80911 16.1914 2.59224Z" stroke="#FF5B4F" stroke-width="2" stroke-linecap="round" stroke-linejoin="round"/>
</svg>
